{
    "asset" : {
        "generator" : "Khronos glTF Blender I/O v1.7.33",
        "version" : "2.0"
    },
    "scene" : 0,
    "scenes" : [
        {
            "name" : "Scene",
            "nodes" : [
                0
            ]
        }
    ],
    "nodes" : [
        {
            "mesh" : 0,
            "name" : "pCube5",
            "rotation" : [
                0.7071068286895752,
                0,
                0,
                0.7071067094802856
            ],
            "scale" : [
                26.259204864501953,
                26.259204864501953,
                26.259204864501953
            ],
            "translation" : [
                -16.123695373535156,
                -0.8245871067047119,
                -8.353602409362793
            ]
        }
    ],
    "materials" : [
        {
            "doubleSided" : true,
            "name" : "lambert1",
            "pbrMetallicRoughness" : {
                "baseColorFactor" : [
                    0.5,
                    0.5,
                    0.5,
                    1
                ],
                "metallicFactor" : 0,
                "roughnessFactor" : 0.5527864098548889
            }
        }
    ],
    "meshes" : [
        {
            "name" : "Mesh.001",
            "primitives" : [
                {
                    "attributes" : {
                        "POSITION" : 0,
                        "NORMAL" : 1,
                        "TEXCOORD_0" : 2
                    },
                    "indices" : 3,
                    "material" : 0
                }
            ]
        }
    ],
    "accessors" : [
        {
            "bufferView" : 0,
            "componentType" : 5126,
            "count" : 249,
            "max" : [
                1.6790069341659546,
                0.05000000074505806,
                -0.004999995231628418
            ],
            "min" : [
                0.10666346549987793,
                -0.25609084963798523,
                -2.994999885559082
            ],
            "type" : "VEC3"
        },
        {
            "bufferView" : 1,
            "componentType" : 5126,
            "count" : 249,
            "type" : "VEC3"
        },
        {
            "bufferView" : 2,
            "componentType" : 5126,
            "count" : 249,
            "type" : "VEC2"
        },
        {
            "bufferView" : 3,
            "componentType" : 5123,
            "count" : 414,
            "type" : "SCALAR"
        }
    ],
    "bufferViews" : [
        {
            "buffer" : 0,
            "byteLength" : 2988,
            "byteOffset" : 0
        },
        {
            "buffer" : 0,
            "byteLength" : 2988,
            "byteOffset" : 2988
        },
        {
            "buffer" : 0,
            "byteLength" : 1992,
            "byteOffset" : 5976
        },
        {
            "buffer" : 0,
            "byteLength" : 828,
            "byteOffset" : 7968
        }
    ],
    "buffers" : [
        {
            "byteLength" : 8796,
            "uri" : "door.bin"
        }
    ]
}
